<?xml version="1.0" encoding="utf-8"?>
<!-- Generator: Adobe Illustrator 24.2.1, SVG Export Plug-In . SVG Version: 6.00 Build 0)  -->
<svg version="1.1" id="图层_1" xmlns="http://www.w3.org/2000/svg" xmlns:xlink="http://www.w3.org/1999/xlink" x="0px" y="0px"
	 viewBox="0 0 36.8 36.8" style="enable-background:new 0 0 36.8 36.8;" xml:space="preserve">
<style type="text/css">
	.st0{fill:#60E5FF;stroke:#1D2088;stroke-width:2;stroke-miterlimit:10;}
	.st1{fill:#172A88;}
	.st2{font-family:'ArialRoundedMTBold';}
	.st3{font-size:12px;}
	.st4{fill:none;}
</style>
<path class="st0" d="M4.5,12.1h29.2c0.8,0,1.4,0.6,1.4,1.4v12.4c0,0.8-0.6,1.4-1.4,1.4H28c-0.8,0-1.4-0.6-1.4-1.4l0,0
	c0-0.8-0.6-1.4-1.4-1.4H12.9c-0.8,0-1.4,0.6-1.4,1.4l0,0c0,0.8-0.6,1.4-1.4,1.4H4.5c-0.8,0-1.4-0.6-1.4-1.4V13.5
	C3.1,12.7,3.7,12.1,4.5,12.1z"/>
<text transform="matrix(1 0 0 1 14.9575 22.6165)" class="st1 st2 st3">B</text>
<text transform="matrix(1 0 0 1 14.9575 22.6165)" class="st4 st2 st3">B</text>
</svg>
